<?xml version="1.0" encoding="UTF-8"?>
<svg version="1.1" xmlns="http://www.w3.org/2000/svg" width="256" height="256">
<path d="M0 0 C0.75941895 0.24137695 1.51883789 0.48275391 2.30126953 0.73144531 C31.68311688 10.15212232 56.35362506 28.94448434 73 55 C74.06154297 56.64548828 74.06154297 56.64548828 75.14453125 58.32421875 C80.85516781 67.72547702 84.6541032 77.55581919 88 88 C88.3410376 89.00232666 88.3410376 89.00232666 88.68896484 90.02490234 C95.50142889 110.66127498 94.9607454 139.50005867 88 160 C87.75862305 160.75941895 87.51724609 161.51883789 87.26855469 162.30126953 C77.84787768 191.68311688 59.05551566 216.35362506 33 233 C31.35451172 234.06154297 31.35451172 234.06154297 29.67578125 235.14453125 C20.27452298 240.85516781 10.44418081 244.6541032 0 248 C-0.66821777 248.2273584 -1.33643555 248.4547168 -2.02490234 248.68896484 C-22.66127498 255.50142889 -51.50005867 254.9607454 -72 248 C-72.75941895 247.75862305 -73.51883789 247.51724609 -74.30126953 247.26855469 C-103.68311688 237.84787768 -128.35362506 219.05551566 -145 193 C-146.06154297 191.35451172 -146.06154297 191.35451172 -147.14453125 189.67578125 C-152.85516781 180.27452298 -156.6541032 170.44418081 -160 160 C-160.3410376 158.99767334 -160.3410376 158.99767334 -160.68896484 157.97509766 C-167.50142889 137.33872502 -166.9607454 108.49994133 -160 88 C-159.75862305 87.24058105 -159.51724609 86.48116211 -159.26855469 85.69873047 C-149.84787768 56.31688312 -131.05551566 31.64637494 -105 15 C-103.90300781 14.29230469 -102.80601563 13.58460937 -101.67578125 12.85546875 C-92.27452298 7.14483219 -82.44418081 3.3458968 -72 0 C-71.33178223 -0.2273584 -70.66356445 -0.4547168 -69.97509766 -0.68896484 C-49.33872502 -7.50142889 -20.49994133 -6.9607454 0 0 Z " fill="#0B0E10" transform="translate(164,4)"/>
<path d="M0 0 C2.62133789 1.30688477 2.62133789 1.30688477 5.22265625 2.94140625 C6.17333984 3.52470703 7.12402344 4.10800781 8.10351562 4.70898438 C10.08073494 5.94751977 12.05729497 7.18710828 14.03320312 8.42773438 C14.98259766 9.00974609 15.93199219 9.59175781 16.91015625 10.19140625 C17.76746338 10.72967041 18.62477051 11.26793457 19.50805664 11.82250977 C22.3684739 13.17411087 23.87548518 13.45636268 27 13 C29.76120154 11.71761858 29.76120154 11.71761858 32.52734375 9.90234375 C33.56697266 9.26619141 34.60660156 8.63003906 35.67773438 7.97460938 C37.8498626 6.61719191 40.01914578 5.25521111 42.18554688 3.88867188 C43.22646484 3.25380859 44.26738281 2.61894531 45.33984375 1.96484375 C46.28206787 1.3730835 47.22429199 0.78132324 48.19506836 0.17163086 C52.70016372 -1.710165 55.95298777 -0.34940157 60.4296875 1.14453125 C67.71225577 4.67021906 67.71225577 4.67021906 70 8 C71.63687853 14.49191179 70.79387912 21.42348656 70 28 C66.33424729 30.11865761 62.66805947 32.23655968 59.00146484 34.35375977 C57.75394874 35.07425469 56.5065522 35.79495668 55.25927734 36.51586914 C53.46743592 37.55148791 51.67516716 38.58636357 49.8828125 39.62109375 C48.80402832 40.2442749 47.72524414 40.86745605 46.61376953 41.50952148 C45.0955855 42.37525224 43.56316922 43.21841539 42 44 C42.04825928 44.98282959 42.09651855 45.96565918 42.14624023 46.97827148 C43.29911305 74.03441575 43.29911305 74.03441575 39.54492188 80.50976562 C35.67856431 84.32607325 31.27488443 86.01981202 26 87 C22 86 22 86 8 78 C8 66.78 8 55.56 8 44 C6.35 43.34 4.7 42.68 3 42 C-18.47860912 32.73783479 -18.47860912 32.73783479 -22.32421875 25.51171875 C-23.93416533 19.57893217 -23.63080793 13.59127485 -21 8 C-17.57765435 3.80226948 -12.99658368 1.88174681 -8 0 C-5.05476603 -1.47261698 -3.1650816 -0.73786734 0 0 Z " fill="#EEB60C" transform="translate(103,94)"/>
<path d="M0 0 C2.00603339 1.03380004 3.97110116 2.14883846 5.90234375 3.31640625 C7.03438232 3.99509766 8.1664209 4.67378906 9.33276367 5.37304688 C10.53437748 6.1028069 11.73595569 6.83262555 12.9375 7.5625 C14.76624597 8.66248474 16.59651098 9.75991141 18.42683411 10.85726929 C19.62704409 11.57713793 20.8267457 12.29785488 22.02592468 13.0194397 C28.290636 16.78712504 34.62714536 20.41895044 41 24 C41 24.66 41 25.32 41 26 C38.63415582 27.70221745 36.29601902 29.23909634 33.8125 30.75 C33.13896484 31.18699219 32.46542969 31.62398437 31.77148438 32.07421875 C31.11083984 32.47769531 30.45019531 32.88117188 29.76953125 33.296875 C29.16729736 33.67166992 28.56506348 34.04646484 27.94458008 34.43261719 C25.06598089 35.27252485 23.64187707 34.32031797 21 33 C19.20129454 32.00621861 17.42080026 30.97901681 15.65625 29.92578125 C14.65722656 29.34119141 13.65820312 28.75660156 12.62890625 28.15429688 C10.53782763 26.92340602 8.45187956 25.68375859 6.37109375 24.43554688 C5.37207031 23.85482422 4.37304688 23.27410156 3.34375 22.67578125 C2.43818359 22.13864502 1.53261719 21.60150879 0.59960938 21.0480957 C-2.55480054 19.77631868 -3.8089302 19.89663865 -7 21 C-8.89337573 22.00628523 -10.74584283 23.09150503 -12.5625 24.23046875 C-13.60664062 24.86791016 -14.65078125 25.50535156 -15.7265625 26.16210938 C-17.91411402 27.51562425 -20.09641289 28.87766444 -22.2734375 30.24804688 C-23.83964844 31.1984082 -23.83964844 31.1984082 -25.4375 32.16796875 C-26.38496094 32.75860107 -27.33242187 33.3492334 -28.30859375 33.95776367 C-31 35 -31 35 -33.65307617 34.28051758 C-34.81480347 33.64666138 -34.81480347 33.64666138 -36 33 C-37.02738281 32.4534375 -38.05476563 31.906875 -39.11328125 31.34375 C-40.69689453 30.43109375 -40.69689453 30.43109375 -42.3125 29.5 C-43.91544922 28.58734375 -43.91544922 28.58734375 -45.55078125 27.65625 C-46.76314453 26.83640625 -46.76314453 26.83640625 -48 26 C-48 25.34 -48 24.68 -48 24 C-46.09838867 22.66235352 -46.09838867 22.66235352 -43.41796875 21.12890625 C-42.43159424 20.55922119 -41.44521973 19.98953613 -40.42895508 19.40258789 C-39.3592749 18.79535889 -38.28959473 18.18812988 -37.1875 17.5625 C-34.98677586 16.30243835 -32.78625772 15.04201684 -30.5859375 13.78125 C-29.47959961 13.14960937 -28.37326172 12.51796875 -27.23339844 11.8671875 C-24.2499189 10.14432043 -21.29626382 8.38186795 -18.3515625 6.59375 C-17.06922729 5.82309204 -17.06922729 5.82309204 -15.76098633 5.03686523 C-14.16055617 4.0731602 -12.56630214 3.09910309 -10.97924805 2.11352539 C-10.260354 1.68547607 -9.54145996 1.25742676 -8.80078125 0.81640625 C-7.87519409 0.25095093 -7.87519409 0.25095093 -6.9309082 -0.32592773 C-4.22023834 -1.27221165 -2.73227106 -0.85228199 0 0 Z " fill="#EAB40C" transform="translate(131,44)"/>
<path d="M0 0 C0 17.49 0 34.98 0 53 C-6.4659375 56.6815625 -6.4659375 56.6815625 -13.0625 60.4375 C-22.29076112 65.69592806 -31.47536299 71.00322698 -40.5078125 76.59375 C-43 78 -43 78 -45 78 C-45 71.4 -45 64.8 -45 58 C-41.27299145 55.87113752 -37.54353338 53.74678743 -33.8125 51.625 C-32.75740234 51.02171875 -31.70230469 50.4184375 -30.61523438 49.796875 C-29.59365234 49.21679688 -28.57207031 48.63671875 -27.51953125 48.0390625 C-26.11344604 47.23782959 -26.11344604 47.23782959 -24.67895508 46.42041016 C-22.16492334 45.08744409 -19.66137494 44.00038995 -17 43 C-17.11782837 41.52575562 -17.11782837 41.52575562 -17.23803711 40.02172852 C-19.22974713 12.86141696 -19.22974713 12.86141696 -15.56005859 6.50634766 C-11.45554532 2.53985644 -5.76393852 0 0 0 Z " fill="#EBB40C" transform="translate(201,119)"/>
<path d="M0 0 C0.7613324 0.30703354 1.52266479 0.61406708 2.30706787 0.93040466 C4.22108648 1.69062634 6.14963519 2.41470153 8.08691406 3.11352539 C11.70472976 4.73153928 14.20477519 6.16889779 17 9 C18.51597812 14.86793343 18.14107903 20.43542075 17.75 26.4375 C17.68974761 28.04342066 17.63500484 29.64955806 17.5859375 31.25585938 C17.4542286 35.17595515 17.24764713 39.08558791 17 43 C17.71115967 43.26731934 18.42231934 43.53463867 19.1550293 43.81005859 C22.08642318 45.03614748 24.75947007 46.46629021 27.51953125 48.0390625 C28.54111328 48.61914062 29.56269531 49.19921875 30.61523438 49.796875 C31.67033203 50.40015625 32.72542969 51.0034375 33.8125 51.625 C34.88693359 52.23601562 35.96136719 52.84703125 37.06835938 53.4765625 C39.71384784 54.98155149 42.35713924 56.49040134 45 58 C45 64.6 45 71.2 45 78 C41.26613425 76.5064537 38.04661206 75.00671323 34.5703125 73.05859375 C33.52617188 72.47400391 32.48203125 71.88941406 31.40625 71.28710938 C30.3234375 70.67673828 29.240625 70.06636719 28.125 69.4375 C26.55878906 68.56254883 26.55878906 68.56254883 24.9609375 67.66992188 C22.78869618 66.45002294 20.63432836 65.19784451 18.49731445 63.91723633 C15.87508684 62.47972475 13.64059424 61.46699444 10.86791992 60.47924805 C6.4821371 58.73757526 2.71100496 56.99907987 0 53 C-2.50767712 44.31527967 -1.39987267 34.84588014 -0.9375 25.9375 C-0.86220772 23.42532842 -0.79377543 20.91294126 -0.73242188 18.40039062 C-0.56761216 12.26220465 -0.31716523 6.13210083 0 0 Z " fill="#ECB50C" transform="translate(54,119)"/>
<path d="M0 0 C2.34255628 1.29897904 4.56896952 2.61433484 6.8125 4.0625 C7.40998047 4.43955078 8.00746094 4.81660156 8.62304688 5.20507812 C10.08636577 6.12989566 11.54379523 7.06402065 13 8 C9.99221774 11.42930043 7.57197974 12.54415646 3.3125 14 C0.23452104 15.33692832 0.23452104 15.33692832 -2 18 C-3.73771852 24.44027823 -3.3142834 31.38985072 -3 38 C-4.89709988 37.06506561 -6.79262578 36.12693704 -8.6875 35.1875 C-9.74324219 34.66542969 -10.79898438 34.14335938 -11.88671875 33.60546875 C-12.91410156 33.07566406 -13.94148438 32.54585937 -15 32 C-16.39412109 31.47212891 -16.39412109 31.47212891 -17.81640625 30.93359375 C-20.9189609 28.18625109 -20.92398026 25.75775754 -21.20239258 21.72314453 C-21.40062718 9.86363243 -21.40062718 9.86363243 -18.58642578 6.11914062 C-13.65625044 1.82682797 -6.5372335 -2.54574958 0 0 Z " fill="#EAB30C" transform="translate(74,77)"/>
<path d="M0 0 C2.4563284 1.31430241 4.85176708 2.6516602 7.25 4.0625 C10.59125 6.0115625 10.59125 6.0115625 14 8 C14 14.93 14 21.86 14 29 C11.751875 30.32 9.50375 31.64 7.1875 33 C6.48391357 33.41765625 5.78032715 33.8353125 5.05541992 34.265625 C0.33333333 37 0.33333333 37 -3 37 C-3 30.73 -3 24.46 -3 18 C-5.475 17.01 -5.475 17.01 -8 16 C-9.96103977 14.83025698 -11.89851383 13.62024401 -13.8125 12.375 C-14.78832031 11.74335937 -15.76414063 11.11171875 -16.76953125 10.4609375 C-17.50558594 9.97882813 -18.24164063 9.49671875 -19 9 C-16.40107636 6.08632783 -13.39953323 4.2464451 -10.0625 2.25 C-9.02222656 1.61578125 -7.98195312 0.9815625 -6.91015625 0.328125 C-3.6848035 -1.14384807 -3.18723046 -1.09454643 0 0 Z " fill="#E9B30C" transform="translate(187,77)"/>
<path d="M0 0 C0.92343915 6.56825696 1.85846654 13.53886312 0 20 C-3.63918185 24.82925816 -9.36888484 27.2552296 -15 29 C-17.5625 28.87890625 -17.5625 28.87890625 -20 28 C-21.64935547 27.41605469 -21.64935547 27.41605469 -23.33203125 26.8203125 C-30.67792533 23.24217778 -30.67792533 23.24217778 -33 20 C-34.63901803 13.81863759 -33.73903185 7.26597948 -33 1 C-28.51919807 1.99113968 -25.40243664 4.25602272 -21.6328125 6.8203125 C-18.20094543 8.35803335 -16.58730607 8.05294498 -13 7 C-9.78415194 5.40296492 -9.78415194 5.40296492 -6.6875 3.4375 C-1.06438632 0 -1.06438632 0 0 0 Z " fill="#EBB40C" transform="translate(144,185)"/>
<path d="M0 0 C0.66 0 1.32 0 2 0 C2.92169718 6.55586658 3.89176344 13.55852573 2 20 C-1.72182942 24.73148134 -7.48118687 26.99090398 -13 29 C-13.66 29 -14.32 29 -15 29 C-15 22.4 -15 15.8 -15 9 C-8.0625 5.0625 -8.0625 5.0625 -5.87524414 3.82446289 C-2.75280646 2.1693196 -2.75280646 2.1693196 0 0 Z " fill="#E8B20C" transform="translate(171,135)"/>
<path d="M0 0 C3.95655292 0.87630877 7.23146454 2.61035721 10.75 4.5625 C13.84375 6.2640625 13.84375 6.2640625 17 8 C17 14.6 17 21.2 17 28 C14.525 27.01 14.525 27.01 12 26 C10.97261719 25.65066406 9.94523437 25.30132812 8.88671875 24.94140625 C5.12657302 23.32073294 2.76995873 22.05172292 0 19 C-1.54401783 12.81840942 -0.67522164 6.25830429 0 0 Z " fill="#E6B10C" transform="translate(82,136)"/>
<path d="M0 0 C2.2827801 1.14966099 4.51749251 2.32358101 6.75 3.5625 C7.35199219 3.89185547 7.95398438 4.22121094 8.57421875 4.56054688 C10.05170503 5.3696465 11.52616036 6.18427662 13 7 C11.49029475 11.17715993 8.93722499 12.61629855 5.1875 14.8125 C4.14980469 15.43769531 3.11210937 16.06289062 2.04296875 16.70703125 C-1.4181409 18.17766963 -2.51833478 18.27099791 -6 17 C-8.12122229 15.92592932 -10.20432465 14.77428552 -12.25 13.5625 C-13.30703125 12.94503906 -14.3640625 12.32757813 -15.453125 11.69140625 C-18 10 -18 10 -19 8 C-16.59205692 6.46358856 -14.17531353 4.94603605 -11.75 3.4375 C-11.06808594 2.99986328 -10.38617188 2.56222656 -9.68359375 2.11132812 C-9.01972656 1.70205078 -8.35585937 1.29277344 -7.671875 0.87109375 C-7.0644043 0.48880615 -6.45693359 0.10651855 -5.83105469 -0.28735352 C-3.46034306 -1.21003448 -2.36312916 -0.86102132 0 0 Z " fill="#E7B20C" transform="translate(130,77)"/>
<path d="M0 0 C3.40312738 1.05875074 6.01353231 2.00902154 9 4 C8.67 4.99 8.34 5.98 8 7 C6.66144944 6.21718695 5.32926356 5.42348123 4 4.625 C3.2575 4.18414062 2.515 3.74328125 1.75 3.2890625 C1.1725 2.86367187 0.595 2.43828125 0 2 C0 1.34 0 0.68 0 0 Z " fill="#1A1610" transform="translate(74,76)"/>
<path d="M0 0 C3.40312738 1.05875074 6.01353231 2.00902154 9 4 C8.67 4.99 8.34 5.98 8 7 C6.66144944 6.21718695 5.32926356 5.42348123 4 4.625 C3.2575 4.18414062 2.515 3.74328125 1.75 3.2890625 C1.1725 2.86367188 0.595 2.43828125 0 2 C0 1.34 0 0.68 0 0 Z " fill="#1A1510" transform="translate(150,54)"/>
<path d="M0 0 C1.98 0.66 3.96 1.32 6 2 C6 2.66 6 3.32 6 4 C6.99 4 7.98 4 9 4 C8.67 4.99 8.34 5.98 8 7 C6.66144944 6.21718695 5.32926356 5.42348123 4 4.625 C3.2575 4.18414062 2.515 3.74328125 1.75 3.2890625 C1.1725 2.86367187 0.595 2.43828125 0 2 C0 1.34 0 0.68 0 0 Z " fill="#1C1710" transform="translate(56,118)"/>
<path d="M0 0 C4.87362847 0.45336079 7.39042389 1.7089159 11 5 C5.95749572 5 4.22094347 3.59750368 0 1 C0 0.67 0 0.34 0 0 Z " fill="#191410" transform="translate(84,72)"/>
<path d="M0 0 C4.87362847 0.45336079 7.39042389 1.7089159 11 5 C5.95749572 5 4.22094347 3.59750368 0 1 C0 0.67 0 0.34 0 0 Z " fill="#181410" transform="translate(134,68)"/>
<path d="M0 0 C4.87362847 0.45336079 7.39042389 1.7089159 11 5 C5.95749572 5 4.22094347 3.59750368 0 1 C0 0.67 0 0.34 0 0 Z " fill="#181410" transform="translate(76,186)"/>
<path d="M0 0 C4.40114397 0.50298788 6.71195019 2.08772731 10 5 C5.66905042 5 3.72965139 4.03435531 0 2 C0 1.34 0 0.68 0 0 Z " fill="#171410" transform="translate(98,132)"/>
<path d="M0 0 C4.455 0.99 4.455 0.99 9 2 C8.67 2.66 8.34 3.32 8 4 C5.69 3.67 3.38 3.34 1 3 C0.67 2.01 0.34 1.02 0 0 Z " fill="#181310" transform="translate(122,104)"/>
<path d="M0 0 C1.12894876 0.93274109 2.25300876 1.87140122 3.375 2.8125 C4.00148438 3.33457031 4.62796875 3.85664063 5.2734375 4.39453125 C7 6 7 6 9 9 C5.18063472 7.44396229 2.73955562 5.04395069 0 2 C0 1.34 0 0.68 0 0 Z " fill="#000000" transform="translate(32,215)"/>
<path d="M0 0 C0 3 0 3 -1.3125 4.60546875 C-1.869375 5.12753906 -2.42625 5.64960938 -3 6.1875 C-3.556875 6.71730469 -4.11375 7.24710938 -4.6875 7.79296875 C-5.120625 8.19128906 -5.55375 8.58960938 -6 9 C-6.66 8.67 -7.32 8.34 -8 8 C-5.36 5.36 -2.72 2.72 0 0 Z " fill="#000000" transform="translate(223,215)"/>
<path d="M0 0 C1.32 0.33 2.64 0.66 4 1 C4 1.66 4 2.32 4 3 C4.99 3 5.98 3 7 3 C6.67 3.99 6.34 4.98 6 6 C3.96166576 4.7260411 1.96147874 3.38938077 0 2 C0 1.34 0 0.68 0 0 Z " fill="#1D1710" transform="translate(193,79)"/>
<path d="M0 0 C3.81684226 1.55500981 6.19195732 4.03595495 9 7 C8.67 7.66 8.34 8.32 8 9 C6.66368764 7.6905332 5.33102075 6.37734515 4 5.0625 C3.2575 4.33160156 2.515 3.60070313 1.75 2.84765625 C0 1 0 1 0 0 Z " fill="#000000" transform="translate(215,32)"/>
<path d="M0 0 C0.66 0.33 1.32 0.66 2 1 C-0.64 3.64 -3.28 6.28 -6 9 C-6 6 -6 6 -4.6875 4.39453125 C-4.130625 3.87246094 -3.57375 3.35039063 -3 2.8125 C-2.443125 2.28269531 -1.88625 1.75289062 -1.3125 1.20703125 C-0.6628125 0.60955078 -0.6628125 0.60955078 0 0 Z " fill="#000000" transform="translate(39,32)"/>
<path d="M0 0 C0.99 0.33 1.98 0.66 3 1 C1.35 1.33 -0.3 1.66 -2 2 C-1.34 1.34 -0.68 0.68 0 0 Z " fill="#000000" transform="translate(170,250)"/>
<path d="M0 0 C2.475 0.495 2.475 0.495 5 1 C4.01 1.33 3.02 1.66 2 2 C1.34 1.34 0.68 0.68 0 0 Z " fill="#000000" transform="translate(83,250)"/>
<path d="M0 0 C0.66 0.66 1.32 1.32 2 2 C1.67 2.99 1.34 3.98 1 5 C0.67 3.35 0.34 1.7 0 0 Z " fill="#000000" transform="translate(4,168)"/>
<path d="M0 0 C0.33 0.99 0.66 1.98 1 3 C0.34 3.66 -0.32 4.32 -1 5 C-0.67 3.35 -0.34 1.7 0 0 Z " fill="#000000" transform="translate(251,168)"/>
<path d="M0 0 C0.66 0.66 1.32 1.32 2 2 C1.67 2.99 1.34 3.98 1 5 C0.67 3.35 0.34 1.7 0 0 Z " fill="#000000" transform="translate(250,83)"/>
<path d="M0 0 C0.33 0.99 0.66 1.98 1 3 C0.34 3.66 -0.32 4.32 -1 5 C-0.67 3.35 -0.34 1.7 0 0 Z " fill="#000000" transform="translate(5,83)"/>
<path d="M0 0 C2.475 0.495 2.475 0.495 5 1 C4.01 1.33 3.02 1.66 2 2 C1.34 1.34 0.68 0.68 0 0 Z " fill="#000000" transform="translate(168,4)"/>
<path d="M0 0 C0.99 0.33 1.98 0.66 3 1 C1.35 1.33 -0.3 1.66 -2 2 C-1.34 1.34 -0.68 0.68 0 0 Z " fill="#000000" transform="translate(85,4)"/>
<path d="M0 0 C1.65 0 3.3 0 5 0 C5 0.33 5 0.66 5 1 C3.35 1 1.7 1 0 1 C0 0.67 0 0.34 0 0 Z " fill="#000000" transform="translate(99,255)"/>
<path d="M0 0 C1.98 0.99 1.98 0.99 4 2 C2.68 1.67 1.36 1.34 0 1 C0 0.67 0 0.34 0 0 Z " fill="#000000" transform="translate(74,246)"/>
<path d="M0 0 C0.33 0.99 0.66 1.98 1 3 C0.01 3.495 0.01 3.495 -1 4 C-0.67 2.68 -0.34 1.36 0 0 Z " fill="#000000" transform="translate(247,178)"/>
<path d="M0 0 C0.33 0 0.66 0 1 0 C1 1.65 1 3.3 1 5 C0.67 5 0.34 5 0 5 C0 3.35 0 1.7 0 0 Z " fill="#000000" transform="translate(255,152)"/>
<path d="M0 0 C0.33 0 0.66 0 1 0 C1 1.65 1 3.3 1 5 C0.67 5 0.34 5 0 5 C0 3.35 0 1.7 0 0 Z " fill="#000000" transform="translate(0,99)"/>
<path d="M0 0 C0.33 0.66 0.66 1.32 1 2 C0.34 2.66 -0.32 3.32 -1 4 C-0.67 2.68 -0.34 1.36 0 0 Z " fill="#000000" transform="translate(9,74)"/>
<path d="M0 0 C1.32 0.33 2.64 0.66 4 1 C3.01 1.495 3.01 1.495 2 2 C1.34 1.34 0.68 0.68 0 0 Z " fill="#000000" transform="translate(178,8)"/>
<path d="M0 0 C1.65 0 3.3 0 5 0 C5 0.33 5 0.66 5 1 C3.35 1 1.7 1 0 1 C0 0.67 0 0.34 0 0 Z " fill="#000000" transform="translate(152,0)"/>
<path d="M0 0 C4 1 4 1 4 1 Z " fill="#000000" transform="translate(153,255)"/>
<path d="M0 0 C0.66 0.33 1.32 0.66 2 1 C1.01 1 0.02 1 -1 1 C-0.67 0.67 -0.34 0.34 0 0 Z " fill="#000000" transform="translate(195,238)"/>
<path d="M0 0 C0.66 0.33 1.32 0.66 2 1 C1.01 1 0.02 1 -1 1 C-0.67 0.67 -0.34 0.34 0 0 Z " fill="#000000" transform="translate(204,232)"/>
<path d="M0 0 C0.99 0.33 1.98 0.66 3 1 C2.01 1 1.02 1 0 1 C0 0.67 0 0.34 0 0 Z " fill="#000000" transform="translate(50,232)"/>
<path d="M0 0 C0.99 0.495 0.99 0.495 2 1 C1.67 1.66 1.34 2.32 1 3 C0.67 2.01 0.34 1.02 0 0 Z " fill="#000000" transform="translate(22,203)"/>
<path d="M0 0 C0 3 0 3 0 3 Z " fill="#000000" transform="translate(233,203)"/>
<path d="M0 0 C0.99 0.495 0.99 0.495 2 1 C1.67 1.66 1.34 2.32 1 3 C0.67 2.01 0.34 1.02 0 0 Z " fill="#000000" transform="translate(16,194)"/>
<path d="M0 0 C1 4 1 4 1 4 Z " fill="#000000" transform="translate(0,153)"/>
<path d="M0 0 C1 4 1 4 1 4 Z " fill="#000000" transform="translate(255,99)"/>
<path d="M0 0 C0.99 0.495 0.99 0.495 2 1 C1.67 1.66 1.34 2.32 1 3 C0.67 2.01 0.34 1.02 0 0 Z " fill="#000000" transform="translate(238,59)"/>
<path d="M0 0 C0.99 0.495 0.99 0.495 2 1 C1.67 1.66 1.34 2.32 1 3 C0.67 2.01 0.34 1.02 0 0 Z " fill="#000000" transform="translate(232,50)"/>
<path d="M0 0 C0 3 0 3 0 3 Z " fill="#000000" transform="translate(23,50)"/>
<path d="M0 0 C0.99 0.33 1.98 0.66 3 1 C2.01 1 1.02 1 0 1 C0 0.67 0 0.34 0 0 Z " fill="#000000" transform="translate(203,22)"/>
<path d="M0 0 C0.66 0.33 1.32 0.66 2 1 C1.01 1 0.02 1 -1 1 C-0.67 0.67 -0.34 0.34 0 0 Z " fill="#000000" transform="translate(51,22)"/>
<path d="M0 0 C0.66 0.33 1.32 0.66 2 1 C1.01 1 0.02 1 -1 1 C-0.67 0.67 -0.34 0.34 0 0 Z " fill="#000000" transform="translate(60,16)"/>
<path d="M0 0 C4 1 4 1 4 1 Z " fill="#000000" transform="translate(99,0)"/>
<path d="M0 0 C3 1 3 1 3 1 Z " fill="#000000" transform="translate(157,254)"/>
<path d="M0 0 C3 1 3 1 3 1 Z " fill="#000000" transform="translate(96,254)"/>
<path d="M0 0 C3 1 3 1 3 1 Z " fill="#000000" transform="translate(161,253)"/>
<path d="M0 0 C3 1 3 1 3 1 Z " fill="#000000" transform="translate(92,253)"/>
<path d="M0 0 C3 1 3 1 3 1 Z " fill="#000000" transform="translate(164,252)"/>
<path d="M0 0 C3 1 3 1 3 1 Z " fill="#000000" transform="translate(89,252)"/>
<path d="M0 0 C3 1 3 1 3 1 Z " fill="#000000" transform="translate(173,249)"/>
<path d="M0 0 C3 1 3 1 3 1 Z " fill="#000000" transform="translate(80,249)"/>
<path d="M0 0 C3 1 3 1 3 1 Z " fill="#000000" transform="translate(178,247)"/>
<path d="" fill="#000000" transform="translate(0,0)"/>
<path d="" fill="#000000" transform="translate(0,0)"/>
<path d="" fill="#000000" transform="translate(0,0)"/>
<path d="" fill="#000000" transform="translate(0,0)"/>
<path d="" fill="#000000" transform="translate(0,0)"/>
<path d="" fill="#000000" transform="translate(0,0)"/>
<path d="" fill="#000000" transform="translate(0,0)"/>
<path d="" fill="#000000" transform="translate(0,0)"/>
<path d="" fill="#000000" transform="translate(0,0)"/>
<path d="" fill="#000000" transform="translate(0,0)"/>
<path d="" fill="#000000" transform="translate(0,0)"/>
<path d="" fill="#000000" transform="translate(0,0)"/>
<path d="" fill="#000000" transform="translate(0,0)"/>
<path d="" fill="#000000" transform="translate(0,0)"/>
<path d="" fill="#000000" transform="translate(0,0)"/>
<path d="" fill="#000000" transform="translate(0,0)"/>
<path d="" fill="#000000" transform="translate(0,0)"/>
<path d="" fill="#000000" transform="translate(0,0)"/>
<path d="M0 0 C3 1 3 1 3 1 Z " fill="#000000" transform="translate(75,8)"/>
<path d="M0 0 C3 1 3 1 3 1 Z " fill="#000000" transform="translate(173,6)"/>
<path d="M0 0 C3 1 3 1 3 1 Z " fill="#000000" transform="translate(80,6)"/>
<path d="M0 0 C3 1 3 1 3 1 Z " fill="#000000" transform="translate(164,3)"/>
<path d="M0 0 C3 1 3 1 3 1 Z " fill="#000000" transform="translate(89,3)"/>
<path d="M0 0 C3 1 3 1 3 1 Z " fill="#000000" transform="translate(161,2)"/>
<path d="M0 0 C3 1 3 1 3 1 Z " fill="#000000" transform="translate(92,2)"/>
<path d="M0 0 C3 1 3 1 3 1 Z " fill="#000000" transform="translate(157,1)"/>
<path d="M0 0 C3 1 3 1 3 1 Z " fill="#000000" transform="translate(96,1)"/>
<path d="M0 0 C2 1 2 1 2 1 Z " fill="#000000" transform="translate(176,248)"/>
<path d="M0 0 C2 1 2 1 2 1 Z " fill="#000000" transform="translate(78,248)"/>
<path d="M0 0 C2 1 2 1 2 1 Z " fill="#000000" transform="translate(183,245)"/>
<path d="M0 0 C2 1 2 1 2 1 Z " fill="#000000" transform="translate(71,245)"/>
<path d="M0 0 C2 1 2 1 2 1 Z " fill="#000000" transform="translate(187,243)"/>
<path d="M0 0 C2 1 2 1 2 1 Z " fill="#000000" transform="translate(67,243)"/>
<path d="M0 0 C2 1 2 1 2 1 Z " fill="#000000" transform="translate(190,241)"/>
<path d="M0 0 C2 1 2 1 2 1 Z " fill="#000000" transform="translate(64,241)"/>
<path d="M0 0 C2 1 2 1 2 1 Z " fill="#000000" transform="translate(192,240)"/>
<path d="M0 0 C2 1 2 1 2 1 Z " fill="#000000" transform="translate(62,240)"/>
<path d="M0 0 C2 1 2 1 2 1 Z " fill="#000000" transform="translate(60,239)"/>
<path d="M0 0 C2 1 2 1 2 1 Z " fill="#000000" transform="translate(197,237)"/>
<path d="M0 0 C2 1 2 1 2 1 Z " fill="#000000" transform="translate(57,237)"/>
<path d="M0 0 C2 1 2 1 2 1 Z " fill="#000000" transform="translate(200,235)"/>
<path d="M0 0 C2 1 2 1 2 1 Z " fill="#000000" transform="translate(54,235)"/>
<path d="M0 0 C2 1 2 1 2 1 Z " fill="#000000" transform="translate(208,229)"/>
<path d="M0 0 C2 1 2 1 2 1 Z " fill="#000000" transform="translate(46,229)"/>
<path d="" fill="#000000" transform="translate(0,0)"/>
<path d="" fill="#000000" transform="translate(0,0)"/>
<path d="" fill="#000000" transform="translate(0,0)"/>
<path d="" fill="#000000" transform="translate(0,0)"/>
<path d="" fill="#000000" transform="translate(0,0)"/>
<path d="" fill="#000000" transform="translate(0,0)"/>
<path d="" fill="#000000" transform="translate(0,0)"/>
<path d="" fill="#000000" transform="translate(0,0)"/>
<path d="" fill="#000000" transform="translate(0,0)"/>
<path d="" fill="#000000" transform="translate(0,0)"/>
<path d="" fill="#000000" transform="translate(0,0)"/>
<path d="" fill="#000000" transform="translate(0,0)"/>
<path d="" fill="#000000" transform="translate(0,0)"/>
<path d="" fill="#000000" transform="translate(0,0)"/>
<path d="" fill="#000000" transform="translate(0,0)"/>
<path d="" fill="#000000" transform="translate(0,0)"/>
<path d="" fill="#000000" transform="translate(0,0)"/>
<path d="" fill="#000000" transform="translate(0,0)"/>
<path d="" fill="#000000" transform="translate(0,0)"/>
<path d="" fill="#000000" transform="translate(0,0)"/>
<path d="" fill="#000000" transform="translate(0,0)"/>
<path d="" fill="#000000" transform="translate(0,0)"/>
<path d="" fill="#000000" transform="translate(0,0)"/>
<path d="" fill="#000000" transform="translate(0,0)"/>
<path d="" fill="#000000" transform="translate(0,0)"/>
<path d="" fill="#000000" transform="translate(0,0)"/>
<path d="" fill="#000000" transform="translate(0,0)"/>
<path d="" fill="#000000" transform="translate(0,0)"/>
<path d="" fill="#000000" transform="translate(0,0)"/>
<path d="" fill="#000000" transform="translate(0,0)"/>
<path d="" fill="#000000" transform="translate(0,0)"/>
<path d="" fill="#000000" transform="translate(0,0)"/>
<path d="" fill="#000000" transform="translate(0,0)"/>
<path d="" fill="#000000" transform="translate(0,0)"/>
<path d="M0 0 C2 1 2 1 2 1 Z " fill="#000000" transform="translate(208,26)"/>
<path d="M0 0 C2 1 2 1 2 1 Z " fill="#000000" transform="translate(46,26)"/>
<path d="M0 0 C2 1 2 1 2 1 Z " fill="#000000" transform="translate(200,20)"/>
<path d="M0 0 C2 1 2 1 2 1 Z " fill="#000000" transform="translate(54,20)"/>
<path d="M0 0 C2 1 2 1 2 1 Z " fill="#000000" transform="translate(197,18)"/>
<path d="M0 0 C2 1 2 1 2 1 Z " fill="#000000" transform="translate(57,18)"/>
<path d="M0 0 C2 1 2 1 2 1 Z " fill="#000000" transform="translate(194,16)"/>
<path d="M0 0 C2 1 2 1 2 1 Z " fill="#000000" transform="translate(192,15)"/>
<path d="M0 0 C2 1 2 1 2 1 Z " fill="#000000" transform="translate(62,15)"/>
<path d="M0 0 C2 1 2 1 2 1 Z " fill="#000000" transform="translate(190,14)"/>
<path d="M0 0 C2 1 2 1 2 1 Z " fill="#000000" transform="translate(64,14)"/>
<path d="M0 0 C2 1 2 1 2 1 Z " fill="#000000" transform="translate(187,12)"/>
<path d="M0 0 C2 1 2 1 2 1 Z " fill="#000000" transform="translate(67,12)"/>
<path d="M0 0 C2 1 2 1 2 1 Z " fill="#000000" transform="translate(183,10)"/>
<path d="M0 0 C2 1 2 1 2 1 Z " fill="#000000" transform="translate(71,10)"/>
<path d="M0 0 C2 1 2 1 2 1 Z " fill="#000000" transform="translate(176,7)"/>
<path d="M0 0 C2 1 2 1 2 1 Z " fill="#000000" transform="translate(78,7)"/>
<path d="" fill="#000000" transform="translate(0,0)"/>
<path d="" fill="#000000" transform="translate(0,0)"/>
<path d="" fill="#000000" transform="translate(0,0)"/>
<path d="" fill="#000000" transform="translate(0,0)"/>
<path d="" fill="#000000" transform="translate(0,0)"/>
<path d="" fill="#000000" transform="translate(0,0)"/>
<path d="" fill="#000000" transform="translate(0,0)"/>
<path d="" fill="#000000" transform="translate(0,0)"/>
<path d="" fill="#000000" transform="translate(0,0)"/>
<path d="" fill="#000000" transform="translate(0,0)"/>
<path d="" fill="#000000" transform="translate(0,0)"/>
<path d="" fill="#000000" transform="translate(0,0)"/>
<path d="" fill="#000000" transform="translate(0,0)"/>
<path d="" fill="#000000" transform="translate(0,0)"/>
<path d="" fill="#000000" transform="translate(0,0)"/>
<path d="" fill="#000000" transform="translate(0,0)"/>
<path d="" fill="#000000" transform="translate(0,0)"/>
<path d="" fill="#000000" transform="translate(0,0)"/>
<path d="" fill="#000000" transform="translate(0,0)"/>
<path d="" fill="#000000" transform="translate(0,0)"/>
<path d="" fill="#000000" transform="translate(0,0)"/>
<path d="" fill="#000000" transform="translate(0,0)"/>
<path d="" fill="#000000" transform="translate(0,0)"/>
<path d="" fill="#000000" transform="translate(0,0)"/>
<path d="" fill="#000000" transform="translate(0,0)"/>
<path d="" fill="#000000" transform="translate(0,0)"/>
<path d="" fill="#000000" transform="translate(0,0)"/>
<path d="" fill="#000000" transform="translate(0,0)"/>
<path d="" fill="#000000" transform="translate(0,0)"/>
<path d="" fill="#000000" transform="translate(0,0)"/>
<path d="" fill="#000000" transform="translate(0,0)"/>
<path d="" fill="#000000" transform="translate(0,0)"/>
<path d="" fill="#000000" transform="translate(0,0)"/>
<path d="" fill="#000000" transform="translate(0,0)"/>
<path d="" fill="#000000" transform="translate(0,0)"/>
<path d="" fill="#000000" transform="translate(0,0)"/>
<path d="" fill="#000000" transform="translate(0,0)"/>
<path d="" fill="#000000" transform="translate(0,0)"/>
<path d="" fill="#000000" transform="translate(0,0)"/>
<path d="" fill="#000000" transform="translate(0,0)"/>
<path d="" fill="#000000" transform="translate(0,0)"/>
<path d="" fill="#000000" transform="translate(0,0)"/>
<path d="" fill="#000000" transform="translate(0,0)"/>
<path d="" fill="#000000" transform="translate(0,0)"/>
<path d="" fill="#000000" transform="translate(0,0)"/>
<path d="" fill="#000000" transform="translate(0,0)"/>
<path d="" fill="#000000" transform="translate(0,0)"/>
<path d="" fill="#000000" transform="translate(0,0)"/>
<path d="" fill="#000000" transform="translate(0,0)"/>
<path d="" fill="#000000" transform="translate(0,0)"/>
<path d="" fill="#000000" transform="translate(0,0)"/>
<path d="" fill="#000000" transform="translate(0,0)"/>
<path d="" fill="#000000" transform="translate(0,0)"/>
<path d="" fill="#000000" transform="translate(0,0)"/>
<path d="" fill="#000000" transform="translate(0,0)"/>
<path d="" fill="#000000" transform="translate(0,0)"/>
<path d="" fill="#000000" transform="translate(0,0)"/>
<path d="" fill="#000000" transform="translate(0,0)"/>
<path d="" fill="#000000" transform="translate(0,0)"/>
<path d="" fill="#000000" transform="translate(0,0)"/>
<path d="" fill="#000000" transform="translate(0,0)"/>
<path d="" fill="#000000" transform="translate(0,0)"/>
<path d="" fill="#000000" transform="translate(0,0)"/>
<path d="" fill="#000000" transform="translate(0,0)"/>
<path d="" fill="#000000" transform="translate(0,0)"/>
<path d="" fill="#000000" transform="translate(0,0)"/>
<path d="" fill="#000000" transform="translate(0,0)"/>
<path d="" fill="#000000" transform="translate(0,0)"/>
<path d="" fill="#000000" transform="translate(0,0)"/>
<path d="" fill="#000000" transform="translate(0,0)"/>
<path d="" fill="#000000" transform="translate(0,0)"/>
<path d="" fill="#000000" transform="translate(0,0)"/>
<path d="" fill="#000000" transform="translate(0,0)"/>
<path d="" fill="#000000" transform="translate(0,0)"/>
<path d="" fill="#000000" transform="translate(0,0)"/>
<path d="" fill="#000000" transform="translate(0,0)"/>
<path d="" fill="#000000" transform="translate(0,0)"/>
<path d="" fill="#000000" transform="translate(0,0)"/>
<path d="" fill="#000000" transform="translate(0,0)"/>
<path d="" fill="#000000" transform="translate(0,0)"/>
<path d="" fill="#000000" transform="translate(0,0)"/>
<path d="" fill="#000000" transform="translate(0,0)"/>
<path d="" fill="#000000" transform="translate(0,0)"/>
<path d="" fill="#000000" transform="translate(0,0)"/>
<path d="" fill="#000000" transform="translate(0,0)"/>
<path d="" fill="#000000" transform="translate(0,0)"/>
<path d="" fill="#000000" transform="translate(0,0)"/>
<path d="" fill="#000000" transform="translate(0,0)"/>
<path d="" fill="#000000" transform="translate(0,0)"/>
<path d="" fill="#000000" transform="translate(0,0)"/>
<path d="" fill="#000000" transform="translate(0,0)"/>
<path d="" fill="#000000" transform="translate(0,0)"/>
<path d="" fill="#000000" transform="translate(0,0)"/>
<path d="" fill="#000000" transform="translate(0,0)"/>
<path d="" fill="#000000" transform="translate(0,0)"/>
<path d="" fill="#000000" transform="translate(0,0)"/>
</svg>
