<?xml version="1.0" encoding="UTF-8"?>
<svg version="1.1" xmlns="http://www.w3.org/2000/svg" width="512" height="512">
<path d="M0 0 C168.96 0 337.92 0 512 0 C512 168.96 512 337.92 512 512 C343.04 512 174.08 512 0 512 C0 343.04 0 174.08 0 0 Z " fill="#000000" transform="translate(0,0)"/>
<path d="M0 0 C0.94077605 -0.00438225 1.8815521 -0.00876451 2.85083652 -0.01327956 C6.02293513 -0.02670078 9.19500594 -0.03285386 12.36712646 -0.03897095 C14.63352078 -0.04686927 16.89991383 -0.05513805 19.16630554 -0.06375122 C26.62613722 -0.09000155 34.08597461 -0.10528139 41.5458374 -0.11953735 C44.11068475 -0.12489571 46.67553206 -0.13027321 49.24037933 -0.13566971 C59.90677587 -0.15730242 70.57316952 -0.17619181 81.23958206 -0.1872921 C84.00817112 -0.19022184 86.77676015 -0.1931835 89.54534912 -0.19619751 C90.57753984 -0.19731659 90.57753984 -0.19731659 91.6305829 -0.19845827 C102.77800525 -0.21111207 113.92526811 -0.2443349 125.07261589 -0.28599934 C136.51522556 -0.32841703 147.95771425 -0.35157926 159.40040946 -0.35721266 C165.82595622 -0.36087164 172.25123268 -0.3729514 178.67670441 -0.4053154 C184.72106827 -0.43532291 190.76499724 -0.44173376 196.80941963 -0.42993164 C199.02902151 -0.4297103 201.24864315 -0.43806524 203.46817589 -0.45558548 C206.49680774 -0.47819284 209.52385137 -0.47002064 212.55249023 -0.45410156 C213.432458 -0.46798365 214.31242577 -0.48186574 215.21905923 -0.49616849 C219.40995027 -0.44183064 222.19157038 -0.15801454 225.54444504 2.484869 C228.0302124 5.15390015 228.0302124 5.15390015 229.2802124 8.46640015 C229.01789125 12.3356371 228.71544587 12.96866476 226.43696499 15.83800697 C225.61288153 16.88885157 225.61288153 16.88885157 224.77214992 17.96092534 C224.19731054 18.68460703 223.62247116 19.40828871 223.0302124 20.15390015 C222.24004532 21.19881815 222.24004532 21.19881815 221.43391526 22.26484561 C209.19639823 38.44282482 194.77056264 57.05912066 173.69033813 60.46426392 C160.91073899 62.05360177 147.99441843 61.57936631 135.15895534 61.07013369 C128.71334137 60.85379237 122.26712004 60.85016602 115.81843567 60.82025146 C105.03472955 60.7418424 94.26227914 60.53199578 83.48309326 60.21981812 C72.41380896 59.89954531 61.34851211 59.67429618 50.27508545 59.56356812 C49.58811087 59.55667436 48.90113628 59.54978061 48.19334429 59.54267795 C45.43100628 59.5152523 42.6686645 59.48826362 39.9063161 59.46190438 C27.37271501 59.34073689 14.83998194 59.15158384 2.30755615 58.94296265 C1.04074281 58.92196644 -0.22607054 58.90097024 -1.53127217 58.87933779 C-8.78742559 58.753905 -16.04181948 58.59766421 -23.29627419 58.39629364 C-25.49233642 58.33845013 -27.68863209 58.28881494 -29.88507462 58.24788284 C-32.87597751 58.19005122 -35.86436222 58.10151253 -38.85420227 58.00415039 C-39.72779438 57.99347617 -40.60138648 57.98280195 -41.50145108 57.97180426 C-47.35477658 57.73209291 -47.35477658 57.73209291 -50.46529293 54.80779076 C-52.47080978 51.27010966 -53.17850591 49.25869368 -52.9697876 45.15390015 C-51.67510986 43.31845093 -51.67510986 43.31845093 -49.91119385 41.41171265 C-49.27028809 40.71102661 -48.62938232 40.01034058 -47.96905518 39.28842163 C-47.30929688 38.58402954 -46.64953857 37.87963745 -45.9697876 37.15390015 C-45.38543945 36.51589478 -44.80109131 35.8778894 -44.19903564 35.22055054 C-36.19351347 26.5093506 -27.94680409 18.0321259 -19.5947876 9.65390015 C-18.76817627 8.82269653 -17.94156494 7.99149292 -17.08990479 7.13510132 C-16.32065674 6.36786743 -15.55140869 5.60063354 -14.7588501 4.81015015 C-13.73332031 3.78631226 -13.73332031 3.78631226 -12.68707275 2.74179077 C-8.94132464 -0.72172156 -4.82612698 0.00270251 0 0 Z " fill="#3DC6BC" transform="translate(167.96978759765625,141.84609985351563)"/>
<path d="M0 0 C0.95065102 -0.01359334 1.90130204 -0.02718668 2.88076067 -0.04119194 C6.06910339 -0.07919985 9.2559137 -0.07425899 12.44445801 -0.06930542 C14.72951233 -0.08725747 17.01454844 -0.10767325 19.29956055 -0.13037109 C25.51078009 -0.18342891 31.72150385 -0.19744077 37.93292809 -0.20126581 C41.8158166 -0.20552975 45.69857897 -0.21833753 49.58143616 -0.23424911 C62.43512625 -0.28691951 75.28841552 -0.31476673 88.14219803 -0.31026627 C88.83491257 -0.31002653 89.52762711 -0.3097868 90.24133301 -0.30953979 C90.93489932 -0.30929451 91.62846563 -0.30904923 92.34304911 -0.30879651 C103.56682574 -0.30636123 114.78939119 -0.36368541 126.0128178 -0.44836999 C137.5517285 -0.53474339 149.08989347 -0.57488393 160.62915087 -0.57080734 C167.1017019 -0.56928017 173.57288403 -0.58622627 180.04515076 -0.64987564 C186.13955399 -0.70816905 192.23129057 -0.70830647 198.32579041 -0.66477585 C200.55537838 -0.65852437 202.7851352 -0.67254039 205.01443481 -0.7089386 C223.58122021 -0.99230225 223.58122021 -0.99230225 230.59497309 5.00583422 C233.11878253 7.47418463 235.35318885 10.07943294 237.60266113 12.80227661 C238.9568209 14.12732914 240.32564525 15.43808146 241.72473145 16.71560669 C244.808055 19.69573797 247.86721491 22.70034219 250.9185791 25.71316528 C252.22338112 26.99606138 253.53442386 28.27263683 254.85119629 29.54324341 C256.78819217 31.41345452 258.70485914 33.30252649 260.61828613 35.19680786 C261.20668274 35.75737381 261.79507935 36.31793976 262.40130615 36.89549255 C266.13526818 40.64869065 267.52188135 43.2940019 267.60266113 48.80227661 C266.01427179 52.37615263 264.88631755 53.61317233 261.60266113 55.80227661 C258.52249868 56.0075738 255.53158734 56.09351809 252.45014954 56.08988953 C251.50176309 56.09653734 250.55337664 56.10318515 249.57625121 56.11003441 C246.38426103 56.12978871 243.19241081 56.1351141 240.00036621 56.14041138 C237.71736277 56.15130204 235.43436295 56.16297325 233.15136719 56.17536926 C226.93840349 56.20592641 220.7254769 56.22290536 214.51245332 56.23558545 C210.63200643 56.24366243 206.7515703 56.25384274 202.87112999 56.26460075 C192.12492014 56.2935827 181.37872562 56.31859842 170.63248158 56.32922459 C169.60072823 56.33026063 169.60072823 56.33026063 168.54813139 56.3313176 C167.51391903 56.33235562 167.51391903 56.33235562 166.45881349 56.33341461 C165.06169433 56.3348266 163.66457519 56.33624741 162.26745605 56.337677 C161.5744378 56.33838217 160.88141955 56.33908734 160.16740074 56.33981388 C148.94371331 56.35205833 137.72036406 56.39483939 126.49681691 56.4506172 C114.97053203 56.50743378 103.44446764 56.53728689 91.91803664 56.54223675 C85.44762962 56.54563761 78.97773132 56.56053901 72.50745583 56.60351753 C66.41943905 56.64324722 60.33228657 56.64968236 54.24417877 56.63061714 C52.01089282 56.62935014 49.77756289 56.64004161 47.54440117 56.66363144 C44.49193134 56.69403276 41.44255311 56.68111452 38.39009094 56.65751648 C37.50884908 56.67654213 36.62760722 56.69556778 35.71966106 56.71516997 C29.59094576 56.60256725 26.58314767 54.79112951 22.22984809 50.51209968 C21.69287639 49.94785807 21.1559047 49.38361646 20.60266113 48.80227661 C19.85492432 48.09723999 19.1071875 47.39220337 18.33679199 46.665802 C17.75292725 46.08306519 17.1690625 45.50032837 16.56750488 44.89993286 C15.90299316 44.23671021 15.23848145 43.57348755 14.55383301 42.89016724 C13.88932129 42.22178833 13.22480957 41.55340942 12.54016113 40.86477661 C11.87178223 40.20026489 11.20340332 39.53575317 10.51477051 38.85110474 C6.58745666 34.91615763 2.88057802 30.85897991 -0.74768066 26.64822388 C-3.96326567 23.05002376 -7.58520924 19.86980146 -11.13952637 16.61087036 C-13.92647736 13.14405762 -14.56426888 11.24556091 -14.39733887 6.80227661 C-10.50318162 0.37446577 -7.23203813 -0.07575366 0 0 Z " fill="#6D99CA" transform="translate(129.3973388671875,228.19772338867188)"/>
<path d="M0 0 C0.94964872 -0.00367669 1.89929744 -0.00735338 2.8777234 -0.01114148 C6.07979847 -0.02220973 9.28184113 -0.02602745 12.4839325 -0.02983093 C14.77165328 -0.03609315 17.05937304 -0.04273973 19.34709167 -0.04974365 C25.5764456 -0.06717448 31.80579184 -0.07771081 38.03516412 -0.08594918 C41.92378578 -0.09109428 45.81240504 -0.09717019 49.70102501 -0.10346031 C60.46436104 -0.12033217 71.22769335 -0.13496765 81.99104023 -0.14220905 C84.7847322 -0.14411899 87.57842415 -0.14603932 90.37211609 -0.147995 C91.06648678 -0.14847874 91.76085746 -0.14896248 92.47626968 -0.14946087 C103.72780489 -0.15776343 114.97923385 -0.18310396 126.23072264 -0.21557567 C137.7784138 -0.24863096 149.32603498 -0.2663235 160.87377518 -0.26985329 C167.35904958 -0.2722085 173.84415606 -0.28123016 180.32938576 -0.30631447 C186.42869524 -0.32952458 192.52772544 -0.33385682 198.62706757 -0.32355309 C200.8680457 -0.32305591 203.10903725 -0.3294294 205.34997368 -0.34310913 C208.40504079 -0.36071804 211.45909358 -0.35377587 214.51416016 -0.34057617 C215.40482266 -0.35154542 216.29548517 -0.36251466 217.21313745 -0.37381631 C221.26931953 -0.33138865 223.42210735 -0.17167163 226.95901775 1.97453022 C228.94755554 4.14717102 228.94755554 4.14717102 230.19755554 7.39717102 C229.92389995 11.50200495 229.5846761 11.9855098 226.94877625 14.85639954 C225.98870163 15.90611435 225.98870163 15.90611435 225.00923157 16.97703552 C221.61378099 20.55111202 218.1687932 24.06851678 214.67802429 27.54951477 C213.5347039 28.69427025 213.5347039 28.69427025 212.36828613 29.8621521 C210.77199487 31.45911891 209.17446001 33.05484355 207.57572937 34.64936829 C205.12102731 37.09866838 202.67176659 39.55332006 200.22294617 42.00849915 C198.66662647 43.56415882 197.10999702 45.11950868 195.55302429 46.67451477 C194.45307381 47.7775016 194.45307381 47.7775016 193.3309021 48.902771 C192.65292068 49.57760025 191.97493927 50.2524295 191.27641296 50.94770813 C190.68019638 51.54312912 190.0839798 52.13855011 189.46969604 52.75201416 C185.83724098 56.08143388 181.57907244 55.29848284 176.93307495 55.30107117 C175.98750978 55.30545342 175.04194461 55.30983567 174.06772596 55.31435072 C170.87947384 55.32777203 167.69124938 55.33392502 164.50297546 55.34004211 C162.22510655 55.34794037 159.94723889 55.35620915 157.66937256 55.36482239 C150.17226868 55.39107155 142.67515912 55.40635159 135.17802429 55.42060852 C132.60077218 55.42596676 130.02352011 55.43134426 127.44626808 55.43674088 C116.72925709 55.45837265 106.01224937 55.47726255 95.29522228 55.48836327 C92.51356184 55.49129303 89.73190144 55.49425468 86.95024109 55.49726868 C86.25886102 55.49801473 85.56748095 55.49876078 84.85514996 55.49952944 C73.65208701 55.51218645 62.44918264 55.5454138 51.24619385 55.58707051 C39.74822168 55.62947417 28.25035537 55.65264865 16.75230294 55.65828383 C10.29493063 55.66194431 3.83782714 55.67403999 -2.6194706 55.70638657 C-8.69255794 55.73637219 -14.76521244 55.74281283 -20.83835793 55.73100281 C-23.06966766 55.73078129 -25.30099693 55.73915086 -27.53223801 55.75665665 C-30.57435603 55.77922882 -33.61488863 55.77110836 -36.65701294 55.75517273 C-37.5437845 55.76905482 -38.43055606 55.7829369 -39.34419948 55.79723966 C-43.73488992 55.74041527 -45.50217241 55.57605095 -49.07325268 52.79276466 C-51.40114831 49.68105717 -52.13186105 48.0385839 -52.05244446 44.14717102 C-48.85782064 38.41700583 -44.26932696 34.09105502 -39.63838196 29.50263977 C-38.82753143 28.69224747 -38.01668091 27.88185516 -37.18125916 27.04690552 C-35.47402335 25.34268058 -33.764368 23.64087644 -32.05244446 21.94136047 C-29.42423488 19.33148383 -26.80419183 16.71361683 -24.18525696 14.09443665 C-22.52427117 12.4383636 -20.86282874 10.78274841 -19.20088196 9.12763977 C-18.02119339 7.94962044 -18.02119339 7.94962044 -16.81767273 6.74780273 C-16.08996674 6.02647659 -15.36226074 5.30515045 -14.61250305 4.56196594 C-13.97170807 3.92498276 -13.33091309 3.28799957 -12.67070007 2.63171387 C-8.96548673 -0.76734615 -4.74893572 -0.00097567 0 0 Z " fill="#9E6CD9" transform="translate(167.0524444580078,314.8528289794922)"/>
<path d="M0 0 C0.66 0.33 1.32 0.66 2 1 C1.37339478 1.61875 1.37339478 1.61875 0.73413086 2.25 C-1.20085297 4.16389044 -3.13227425 6.08131082 -5.0625 8 C-5.75190674 8.68465332 -6.44131348 9.36930664 -7.15161133 10.07470703 C-11.19096569 14.11166699 -15.07270827 18.18344689 -18.60546875 22.6796875 C-20.32272771 24.30555172 -21.72295538 24.50303174 -24 25 C-19.18132753 19.19108254 -13.98743592 13.86934448 -8.625 8.5625 C-7.79355469 7.73556641 -6.96210938 6.90863281 -6.10546875 6.05664062 C-4.0725896 4.03544469 -2.03740037 2.01663665 0 0 Z " fill="#1A1F2D" transform="translate(394,329)"/>
<path d="M0 0 C0.99 0.33 1.98 0.66 3 1 C-1.29 5.29 -5.58 9.58 -10 14 C-10.66 13.34 -11.32 12.68 -12 12 C-8.04 8.04 -4.08 4.08 0 0 Z " fill="#0A0811" transform="translate(369,354)"/>
<path d="M0 0 C0.99 0.33 1.98 0.66 3 1 C-0.96 4.465 -0.96 4.465 -5 8 C-5.66 7.67 -6.32 7.34 -7 7 C-4.69 4.69 -2.38 2.38 0 0 Z " fill="#131320" transform="translate(377,346)"/>
<path d="M0 0 C0.99 0.33 1.98 0.66 3 1 C2.0479279 2.00596297 1.08812654 3.00461563 0.125 4 C-0.40867187 4.556875 -0.94234375 5.11375 -1.4921875 5.6875 C-3 7 -3 7 -5 7 C-3.70700306 4.11562221 -2.34058637 2.12780579 0 0 Z " fill="#010908" transform="translate(359,193)"/>
</svg>
