<svg xmlns="http://www.w3.org/2000/svg" viewBox="0 0 24 24" fill="none">
  <path
    d="M3 7.5A2.5 2.5 0 0 1 5.5 5h12A2.5 2.5 0 0 1 20 7.5V9h-3.5A2.5 2.5 0 0 0 14 11.5v1A2.5 2.5 0 0 0 16.5 15H20v1.5a2.5 2.5 0 0 1-2.5 2.5h-12A2.5 2.5 0 0 1 3 16.5v-9Z"
    stroke="currentColor"
    stroke-width="1.5"
  />
  <path
    d="M16.5 10H21v4h-4.5A1.5 1.5 0 0 1 15 12.5v-1A1.5 1.5 0 0 1 16.5 10Z"
    stroke="currentColor"
    stroke-width="1.5"
  />
  <circle cx="17.5" cy="12" r="0.75" fill="currentColor" />
</svg>
